# xmcd
#
# Track frame offsets:
#	180
#	15749
#	29480
#	40062
#	56895
#	70893
#	82194
#	100638
#	115127
#	128324
#	145290
#	158502
#	173673
#	187201
#	202450
#	216439
#	227311
#	246119
#	257287
#	273199
#	286596
#	299395
#	315830
#
# Disc length: 4372 seconds
#
# Revision: 1
# Processed by: cddbd v1.5.1PL0 Copyright (c) Steve Scherf et al.
# Submitted via: EasyCDDAExtractor 7.0.5.4
#
DISCID=43111217
DTITLE=Various Artist - Greatest South African Love Songs
DYEAR=1900
DGENRE=
TTITLE0=Sean rennie - Charly
TTITLE1=The delians - Another love to come
TTITLE2=The delians - All of the time Girl
TTITLE3=Roy Bulkin - Make her an Angel
TTITLE4=Caroline du Preez - Keep your kisses in my heart
TTITLE5=Tommy Oliver - I wanna live
TTITLE6=Alan Garrity - You stood by me
TTITLE7=Judy Padge - Time after time
TTITLE8=The Dream Merchants - Love minus zero
TTITLE9=Dicky Loader - Help me find the sun
TTITLE10=Gerry Grayson - Don't break this heart
TTITLE11=Maria - C'est la vie
TTITLE12=Lionel Peterson - I need a little love
TTITLE13=The Flames - For your precious love
TTITLE14=Clive Bruce - If you've got nothing on tonight
TTITLE15=Lauren Copley - It's too late now
TTITLE16=Tommy Dell - Cry to me
TTITLE17=Virginia Lee - Darling it's wonderful
TTITLE18=Jody Wayne - The wonder of your love
TTITLE19=Flood - Let me into your life
TTITLE20=Marie van Zyl - And when we dance
TTITLE21=Gene Rockwell - A Soldier's Prayer
TTITLE22=Jill Kirkland - First of May
EXTD=
EXTT0=
EXTT1=
EXTT2=
EXTT3=
EXTT4=
EXTT5=
EXTT6=
EXTT7=
EXTT8=
EXTT9=
EXTT10=
EXTT11=
EXTT12=
EXTT13=
EXTT14=
EXTT15=
EXTT16=
EXTT17=
EXTT18=
EXTT19=
EXTT20=
EXTT21=
EXTT22=
PLAYORDER=
